<mxfile host="Electron" agent="Mozilla/5.0 (Windows NT 10.0; Win64; x64) AppleWebKit/537.36 (KHTML, like Gecko) draw.io/26.0.16 Chrome/132.0.6834.196 Electron/34.2.0 Safari/537.36" version="26.0.16">
  <diagram name="Page-1" id="xA47V6BZI0Tz-3wyqeJT">
    <mxGraphModel dx="1132" dy="827" grid="1" gridSize="10" guides="1" tooltips="1" connect="1" arrows="1" fold="1" page="1" pageScale="1" pageWidth="827" pageHeight="1169" math="0" shadow="0">
      <root>
        <mxCell id="0" />
        <mxCell id="1" parent="0" />
        <mxCell id="2sqePHLHoEH6F-gsDKu5-7" value="" style="rounded=0;orthogonalLoop=1;jettySize=auto;html=1;endArrow=ERmandOne;startFill=0;entryX=0.5;entryY=0;entryDx=0;entryDy=0;endFill=0;startArrow=ERmandOne;endSize=15;startSize=15;exitX=0.5;exitY=1;exitDx=0;exitDy=0;" parent="1" source="2sqePHLHoEH6F-gsDKu5-2" target="2sqePHLHoEH6F-gsDKu5-5" edge="1">
          <mxGeometry relative="1" as="geometry">
            <mxPoint x="410" y="450" as="sourcePoint" />
            <mxPoint x="451" y="490" as="targetPoint" />
          </mxGeometry>
        </mxCell>
        <mxCell id="y9VSZc1YzwKOPmCqrH8i-3" value="has" style="edgeLabel;html=1;align=center;verticalAlign=middle;resizable=0;points=[];fontStyle=1" vertex="1" connectable="0" parent="2sqePHLHoEH6F-gsDKu5-7">
          <mxGeometry x="-0.1385" relative="1" as="geometry">
            <mxPoint as="offset" />
          </mxGeometry>
        </mxCell>
        <mxCell id="2sqePHLHoEH6F-gsDKu5-23" style="edgeStyle=orthogonalEdgeStyle;rounded=0;orthogonalLoop=1;jettySize=auto;html=1;exitX=0.5;exitY=0;exitDx=0;exitDy=0;entryX=0;entryY=0.5;entryDx=0;entryDy=0;endArrow=oval;endFill=0;" parent="1" source="2sqePHLHoEH6F-gsDKu5-2" target="2sqePHLHoEH6F-gsDKu5-22" edge="1">
          <mxGeometry relative="1" as="geometry" />
        </mxCell>
        <mxCell id="2sqePHLHoEH6F-gsDKu5-27" style="edgeStyle=orthogonalEdgeStyle;rounded=0;orthogonalLoop=1;jettySize=auto;html=1;entryX=0;entryY=0.5;entryDx=0;entryDy=0;endArrow=oval;endFill=0;" parent="1" source="2sqePHLHoEH6F-gsDKu5-2" target="2sqePHLHoEH6F-gsDKu5-24" edge="1">
          <mxGeometry relative="1" as="geometry" />
        </mxCell>
        <mxCell id="2sqePHLHoEH6F-gsDKu5-28" style="edgeStyle=orthogonalEdgeStyle;rounded=0;orthogonalLoop=1;jettySize=auto;html=1;entryX=0;entryY=0.5;entryDx=0;entryDy=0;endArrow=oval;endFill=0;" parent="1" source="2sqePHLHoEH6F-gsDKu5-2" target="2sqePHLHoEH6F-gsDKu5-25" edge="1">
          <mxGeometry relative="1" as="geometry" />
        </mxCell>
        <mxCell id="2sqePHLHoEH6F-gsDKu5-29" style="edgeStyle=orthogonalEdgeStyle;rounded=0;orthogonalLoop=1;jettySize=auto;html=1;entryX=0;entryY=0.5;entryDx=0;entryDy=0;endArrow=oval;endFill=0;" parent="1" source="2sqePHLHoEH6F-gsDKu5-2" target="2sqePHLHoEH6F-gsDKu5-26" edge="1">
          <mxGeometry relative="1" as="geometry" />
        </mxCell>
        <mxCell id="2sqePHLHoEH6F-gsDKu5-2" value="client" style="whiteSpace=wrap;html=1;align=center;" parent="1" vertex="1">
          <mxGeometry x="401" y="360" width="100" height="40" as="geometry" />
        </mxCell>
        <mxCell id="2sqePHLHoEH6F-gsDKu5-17" value="" style="rounded=0;orthogonalLoop=1;jettySize=auto;html=1;exitX=1;exitY=0.5;exitDx=0;exitDy=0;endArrow=ERmandOne;startFill=0;endFill=0;startArrow=ERzeroToMany;strokeWidth=1;jumpSize=6;jumpStyle=sharp;flowAnimation=0;shadow=0;endSize=15;startSize=15;sourcePerimeterSpacing=0;" parent="1" source="-NDEQIQGINjLSMR_XMu2-1" target="2sqePHLHoEH6F-gsDKu5-16" edge="1">
          <mxGeometry relative="1" as="geometry">
            <mxPoint x="1021.0000000000002" y="380.0000000000001" as="sourcePoint" />
          </mxGeometry>
        </mxCell>
        <mxCell id="y9VSZc1YzwKOPmCqrH8i-7" value="has" style="edgeLabel;html=1;align=center;verticalAlign=middle;resizable=0;points=[];fontStyle=1" vertex="1" connectable="0" parent="2sqePHLHoEH6F-gsDKu5-17">
          <mxGeometry x="-0.041" y="1" relative="1" as="geometry">
            <mxPoint x="8" y="1" as="offset" />
          </mxGeometry>
        </mxCell>
        <mxCell id="2sqePHLHoEH6F-gsDKu5-22" value="name" style="ellipse;align=left;strokeColor=none;fillColor=none;fillStyle=auto;opacity=0;spacingLeft=5;html=1;" parent="1" vertex="1">
          <mxGeometry x="480" y="270" width="80" height="20" as="geometry" />
        </mxCell>
        <mxCell id="2sqePHLHoEH6F-gsDKu5-24" value="phone" style="ellipse;align=left;strokeColor=none;fillColor=none;fillStyle=auto;opacity=0;spacingLeft=5;html=1;" parent="1" vertex="1">
          <mxGeometry x="480" y="290" width="80" height="20" as="geometry" />
        </mxCell>
        <mxCell id="2sqePHLHoEH6F-gsDKu5-25" value="email" style="ellipse;align=left;strokeColor=none;fillColor=none;fillStyle=auto;opacity=0;spacingLeft=5;html=1;" parent="1" vertex="1">
          <mxGeometry x="480" y="330" width="80" height="20" as="geometry" />
        </mxCell>
        <mxCell id="2sqePHLHoEH6F-gsDKu5-26" value="document" style="ellipse;align=left;strokeColor=none;fillColor=none;fillStyle=auto;opacity=0;spacingLeft=5;html=1;" parent="1" vertex="1">
          <mxGeometry x="480" y="310" width="80" height="20" as="geometry" />
        </mxCell>
        <mxCell id="2sqePHLHoEH6F-gsDKu5-57" value="Entity Relationship Diagram" style="text;align=center;verticalAlign=middle;resizable=0;points=[];autosize=1;strokeColor=none;fillColor=none;fontStyle=1;fontSize=18;fontColor=default;labelBackgroundColor=none;html=1;" parent="1" vertex="1">
          <mxGeometry x="580" y="210" width="250" height="40" as="geometry" />
        </mxCell>
        <mxCell id="y9VSZc1YzwKOPmCqrH8i-2" value="" style="fontSize=12;html=1;endArrow=ERzeroToMany;startArrow=ERmandOne;rounded=0;exitX=1;exitY=0.5;exitDx=0;exitDy=0;entryX=0;entryY=0.5;entryDx=0;entryDy=0;strokeWidth=1;endSize=15;startSize=15;targetPerimeterSpacing=0;sourcePerimeterSpacing=0;" edge="1" parent="1" source="2sqePHLHoEH6F-gsDKu5-2" target="-NDEQIQGINjLSMR_XMu2-1">
          <mxGeometry width="100" height="100" relative="1" as="geometry">
            <mxPoint x="630" y="570" as="sourcePoint" />
            <mxPoint x="640" y="400" as="targetPoint" />
          </mxGeometry>
        </mxCell>
        <mxCell id="y9VSZc1YzwKOPmCqrH8i-6" value="made" style="edgeLabel;html=1;align=center;verticalAlign=middle;resizable=0;points=[];fontStyle=1" vertex="1" connectable="0" parent="y9VSZc1YzwKOPmCqrH8i-2">
          <mxGeometry x="-0.0402" y="-2" relative="1" as="geometry">
            <mxPoint y="-2" as="offset" />
          </mxGeometry>
        </mxCell>
        <mxCell id="y9VSZc1YzwKOPmCqrH8i-10" value="" style="group" vertex="1" connectable="0" parent="1">
          <mxGeometry x="401" y="518" width="179" height="132.5" as="geometry" />
        </mxCell>
        <mxCell id="2sqePHLHoEH6F-gsDKu5-5" value="time_account" style="whiteSpace=wrap;html=1;align=center;" parent="y9VSZc1YzwKOPmCqrH8i-10" vertex="1">
          <mxGeometry width="100" height="40" as="geometry" />
        </mxCell>
        <mxCell id="2sqePHLHoEH6F-gsDKu5-31" value="client_id" style="ellipse;align=left;spacingLeft=5;html=1;strokeColor=none;fillColor=none;" parent="y9VSZc1YzwKOPmCqrH8i-10" vertex="1">
          <mxGeometry x="79" y="57.5" width="100" height="20" as="geometry" />
        </mxCell>
        <mxCell id="2sqePHLHoEH6F-gsDKu5-33" value="time_balance" style="ellipse;align=left;spacingLeft=5;html=1;strokeColor=none;fillColor=none;" parent="y9VSZc1YzwKOPmCqrH8i-10" vertex="1">
          <mxGeometry x="79" y="77.5" width="100" height="15" as="geometry" />
        </mxCell>
        <mxCell id="2sqePHLHoEH6F-gsDKu5-34" value="start_date" style="ellipse;align=left;spacingLeft=5;html=1;strokeColor=none;fillColor=none;" parent="y9VSZc1YzwKOPmCqrH8i-10" vertex="1">
          <mxGeometry x="79" y="92.5" width="100" height="20" as="geometry" />
        </mxCell>
        <mxCell id="y9VSZc1YzwKOPmCqrH8i-8" value="expire_date" style="ellipse;align=left;spacingLeft=5;html=1;strokeColor=none;fillColor=none;" vertex="1" parent="y9VSZc1YzwKOPmCqrH8i-10">
          <mxGeometry x="79" y="112.5" width="100" height="20" as="geometry" />
        </mxCell>
        <mxCell id="2sqePHLHoEH6F-gsDKu5-32" style="edgeStyle=orthogonalEdgeStyle;rounded=0;orthogonalLoop=1;jettySize=auto;html=1;entryX=0;entryY=0.5;entryDx=0;entryDy=0;endArrow=oval;endFill=0;" parent="y9VSZc1YzwKOPmCqrH8i-10" source="2sqePHLHoEH6F-gsDKu5-5" target="2sqePHLHoEH6F-gsDKu5-31" edge="1">
          <mxGeometry relative="1" as="geometry" />
        </mxCell>
        <mxCell id="2sqePHLHoEH6F-gsDKu5-35" style="edgeStyle=orthogonalEdgeStyle;rounded=0;orthogonalLoop=1;jettySize=auto;html=1;entryX=0;entryY=0.5;entryDx=0;entryDy=0;endArrow=oval;endFill=0;" parent="y9VSZc1YzwKOPmCqrH8i-10" source="2sqePHLHoEH6F-gsDKu5-5" target="2sqePHLHoEH6F-gsDKu5-33" edge="1">
          <mxGeometry relative="1" as="geometry" />
        </mxCell>
        <mxCell id="2sqePHLHoEH6F-gsDKu5-36" style="edgeStyle=orthogonalEdgeStyle;rounded=0;orthogonalLoop=1;jettySize=auto;html=1;entryX=0;entryY=0.5;entryDx=0;entryDy=0;endArrow=oval;endFill=0;" parent="y9VSZc1YzwKOPmCqrH8i-10" source="2sqePHLHoEH6F-gsDKu5-5" target="2sqePHLHoEH6F-gsDKu5-34" edge="1">
          <mxGeometry relative="1" as="geometry" />
        </mxCell>
        <mxCell id="y9VSZc1YzwKOPmCqrH8i-9" style="edgeStyle=orthogonalEdgeStyle;rounded=0;orthogonalLoop=1;jettySize=auto;html=1;entryX=0;entryY=0.5;entryDx=0;entryDy=0;endArrow=oval;endFill=0;exitX=0.5;exitY=1;exitDx=0;exitDy=0;" edge="1" parent="y9VSZc1YzwKOPmCqrH8i-10" source="2sqePHLHoEH6F-gsDKu5-5" target="y9VSZc1YzwKOPmCqrH8i-8">
          <mxGeometry relative="1" as="geometry">
            <mxPoint x="60" y="62" as="sourcePoint" />
            <mxPoint x="89" y="122" as="targetPoint" />
          </mxGeometry>
        </mxCell>
        <mxCell id="y9VSZc1YzwKOPmCqrH8i-12" value="" style="group" vertex="1" connectable="0" parent="1">
          <mxGeometry x="890" y="360" width="140" height="146" as="geometry" />
        </mxCell>
        <mxCell id="2sqePHLHoEH6F-gsDKu5-16" value="room" style="whiteSpace=wrap;html=1;align=center;" parent="y9VSZc1YzwKOPmCqrH8i-12" vertex="1">
          <mxGeometry width="100" height="40" as="geometry" />
        </mxCell>
        <mxCell id="2sqePHLHoEH6F-gsDKu5-43" value="name" style="ellipse;align=left;spacingLeft=5;html=1;strokeColor=none;fillColor=none;" parent="y9VSZc1YzwKOPmCqrH8i-12" vertex="1">
          <mxGeometry x="70" y="70" width="70" height="20" as="geometry" />
        </mxCell>
        <mxCell id="2sqePHLHoEH6F-gsDKu5-44" value="hour_price" style="ellipse;align=left;spacingLeft=5;html=1;strokeColor=none;fillColor=none;" parent="y9VSZc1YzwKOPmCqrH8i-12" vertex="1">
          <mxGeometry x="70" y="89" width="70" height="20" as="geometry" />
        </mxCell>
        <mxCell id="2sqePHLHoEH6F-gsDKu5-45" value="description" style="ellipse;align=left;spacingLeft=5;html=1;strokeColor=none;fillColor=none;" parent="y9VSZc1YzwKOPmCqrH8i-12" vertex="1">
          <mxGeometry x="70" y="107" width="70" height="20" as="geometry" />
        </mxCell>
        <mxCell id="2sqePHLHoEH6F-gsDKu5-46" value="avaible" style="ellipse;align=left;spacingLeft=5;html=1;strokeColor=none;fillColor=none;" parent="y9VSZc1YzwKOPmCqrH8i-12" vertex="1">
          <mxGeometry x="70" y="126" width="70" height="20" as="geometry" />
        </mxCell>
        <mxCell id="2sqePHLHoEH6F-gsDKu5-51" style="edgeStyle=orthogonalEdgeStyle;rounded=0;orthogonalLoop=1;jettySize=auto;html=1;entryX=0;entryY=0.5;entryDx=0;entryDy=0;endArrow=oval;endFill=0;exitX=0.5;exitY=1;exitDx=0;exitDy=0;" parent="y9VSZc1YzwKOPmCqrH8i-12" source="2sqePHLHoEH6F-gsDKu5-16" target="2sqePHLHoEH6F-gsDKu5-43" edge="1">
          <mxGeometry relative="1" as="geometry" />
        </mxCell>
        <mxCell id="2sqePHLHoEH6F-gsDKu5-52" style="edgeStyle=orthogonalEdgeStyle;rounded=0;orthogonalLoop=1;jettySize=auto;html=1;entryX=0;entryY=0.5;entryDx=0;entryDy=0;endArrow=oval;endFill=0;exitX=0.5;exitY=1;exitDx=0;exitDy=0;" parent="y9VSZc1YzwKOPmCqrH8i-12" source="2sqePHLHoEH6F-gsDKu5-16" target="2sqePHLHoEH6F-gsDKu5-44" edge="1">
          <mxGeometry relative="1" as="geometry" />
        </mxCell>
        <mxCell id="2sqePHLHoEH6F-gsDKu5-53" style="edgeStyle=orthogonalEdgeStyle;rounded=0;orthogonalLoop=1;jettySize=auto;html=1;entryX=0;entryY=0.5;entryDx=0;entryDy=0;endArrow=oval;endFill=0;exitX=0.5;exitY=1;exitDx=0;exitDy=0;" parent="y9VSZc1YzwKOPmCqrH8i-12" source="2sqePHLHoEH6F-gsDKu5-16" target="2sqePHLHoEH6F-gsDKu5-45" edge="1">
          <mxGeometry relative="1" as="geometry" />
        </mxCell>
        <mxCell id="2sqePHLHoEH6F-gsDKu5-56" style="edgeStyle=orthogonalEdgeStyle;rounded=0;orthogonalLoop=1;jettySize=auto;html=1;entryX=0;entryY=0.5;entryDx=0;entryDy=0;endArrow=oval;endFill=0;exitX=0.5;exitY=1;exitDx=0;exitDy=0;" parent="y9VSZc1YzwKOPmCqrH8i-12" source="2sqePHLHoEH6F-gsDKu5-16" target="2sqePHLHoEH6F-gsDKu5-46" edge="1">
          <mxGeometry relative="1" as="geometry" />
        </mxCell>
        <mxCell id="y9VSZc1YzwKOPmCqrH8i-13" value="" style="group" vertex="1" connectable="0" parent="1">
          <mxGeometry x="640" y="360" width="160" height="143" as="geometry" />
        </mxCell>
        <mxCell id="2sqePHLHoEH6F-gsDKu5-37" value="client_id" style="ellipse;align=left;spacingLeft=5;html=1;strokeColor=none;fillColor=none;" parent="y9VSZc1YzwKOPmCqrH8i-13" vertex="1">
          <mxGeometry x="90" y="70" width="70" height="15" as="geometry" />
        </mxCell>
        <mxCell id="2sqePHLHoEH6F-gsDKu5-38" value="datetime" style="ellipse;align=left;spacingLeft=5;html=1;strokeColor=none;fillColor=none;" parent="y9VSZc1YzwKOPmCqrH8i-13" vertex="1">
          <mxGeometry x="90" y="107" width="70" height="17" as="geometry" />
        </mxCell>
        <mxCell id="2sqePHLHoEH6F-gsDKu5-39" value="room_id" style="ellipse;align=left;spacingLeft=5;html=1;strokeColor=none;fillColor=none;" parent="y9VSZc1YzwKOPmCqrH8i-13" vertex="1">
          <mxGeometry x="90" y="88" width="70" height="18" as="geometry" />
        </mxCell>
        <mxCell id="-NDEQIQGINjLSMR_XMu2-1" value="reservation" style="shape=associativeEntity;whiteSpace=wrap;html=1;align=center;" parent="y9VSZc1YzwKOPmCqrH8i-13" vertex="1">
          <mxGeometry width="140" height="40" as="geometry" />
        </mxCell>
        <mxCell id="y9VSZc1YzwKOPmCqrH8i-4" value="total_hours" style="ellipse;align=left;spacingLeft=5;html=1;strokeColor=none;fillColor=none;" vertex="1" parent="y9VSZc1YzwKOPmCqrH8i-13">
          <mxGeometry x="90" y="125" width="70" height="18" as="geometry" />
        </mxCell>
        <mxCell id="2sqePHLHoEH6F-gsDKu5-40" style="edgeStyle=orthogonalEdgeStyle;rounded=0;orthogonalLoop=1;jettySize=auto;html=1;entryX=0;entryY=0.5;entryDx=0;entryDy=0;exitX=0.5;exitY=1;exitDx=0;exitDy=0;endArrow=oval;endFill=0;" parent="y9VSZc1YzwKOPmCqrH8i-13" source="-NDEQIQGINjLSMR_XMu2-1" target="2sqePHLHoEH6F-gsDKu5-37" edge="1">
          <mxGeometry relative="1" as="geometry">
            <mxPoint x="161" y="40" as="sourcePoint" />
          </mxGeometry>
        </mxCell>
        <mxCell id="2sqePHLHoEH6F-gsDKu5-42" style="edgeStyle=orthogonalEdgeStyle;rounded=0;orthogonalLoop=1;jettySize=auto;html=1;entryX=0;entryY=0.5;entryDx=0;entryDy=0;exitX=0.5;exitY=1;exitDx=0;exitDy=0;endArrow=oval;endFill=0;" parent="y9VSZc1YzwKOPmCqrH8i-13" source="-NDEQIQGINjLSMR_XMu2-1" target="2sqePHLHoEH6F-gsDKu5-38" edge="1">
          <mxGeometry relative="1" as="geometry">
            <mxPoint x="161" y="40" as="sourcePoint" />
          </mxGeometry>
        </mxCell>
        <mxCell id="2sqePHLHoEH6F-gsDKu5-41" style="edgeStyle=orthogonalEdgeStyle;rounded=0;orthogonalLoop=1;jettySize=auto;html=1;entryX=0;entryY=0.5;entryDx=0;entryDy=0;exitX=0.5;exitY=1;exitDx=0;exitDy=0;endArrow=oval;endFill=0;" parent="y9VSZc1YzwKOPmCqrH8i-13" source="-NDEQIQGINjLSMR_XMu2-1" target="2sqePHLHoEH6F-gsDKu5-39" edge="1">
          <mxGeometry relative="1" as="geometry">
            <mxPoint x="161" y="40" as="sourcePoint" />
          </mxGeometry>
        </mxCell>
        <mxCell id="y9VSZc1YzwKOPmCqrH8i-5" style="edgeStyle=orthogonalEdgeStyle;rounded=0;orthogonalLoop=1;jettySize=auto;html=1;entryX=0;entryY=0.5;entryDx=0;entryDy=0;exitX=0.5;exitY=1;exitDx=0;exitDy=0;endArrow=oval;endFill=0;" edge="1" parent="y9VSZc1YzwKOPmCqrH8i-13" source="-NDEQIQGINjLSMR_XMu2-1" target="y9VSZc1YzwKOPmCqrH8i-4">
          <mxGeometry relative="1" as="geometry">
            <mxPoint x="150" y="60" as="sourcePoint" />
            <mxPoint x="190" y="130" as="targetPoint" />
          </mxGeometry>
        </mxCell>
      </root>
    </mxGraphModel>
  </diagram>
</mxfile>
